<svg width="18" height="18" viewBox="0 0 18 18" fill="none" xmlns="http://www.w3.org/2000/svg">
<path d="M8.69 3.77319L8.447 3.89619C8.32947 3.95496 8.20151 3.99 8.07043 3.99931C7.93936 4.00863 7.80773 3.99204 7.68307 3.95048C7.4313 3.86656 7.22318 3.68606 7.1045 3.44869C6.98582 3.21132 6.96629 2.93653 7.05021 2.68476C7.13413 2.43299 7.31463 2.22488 7.552 2.10619L9.552 1.10619C9.71704 1.0227 9.90203 0.98672 10.0863 1.00226C10.2706 1.0178 10.447 1.08424 10.5957 1.19419C10.7445 1.30413 10.8597 1.45324 10.9286 1.62487C10.9975 1.79651 11.0174 1.98392 10.986 2.16619L9.986 8.16619C9.94224 8.42783 9.79634 8.66136 9.58039 8.81542C9.36444 8.96949 9.09614 9.03145 8.8345 8.98769C8.57286 8.94393 8.33933 8.79803 8.18527 8.58208C8.03121 8.36613 7.96924 8.09783 8.013 7.83619L8.69 3.77319ZM3.617 2.92519C3.49577 2.87489 3.38566 2.80115 3.293 2.70819L2.293 1.70819C2.11084 1.51959 2.01005 1.26699 2.01233 1.00479C2.0146 0.742593 2.11977 0.49178 2.30518 0.306372C2.49059 0.120964 2.7414 0.0157953 3.0036 0.0135168C3.2658 0.0112384 3.5184 0.112033 3.707 0.294191L4.707 1.29419C4.87196 1.4574 4.97496 1.67295 4.99832 1.90382C5.02167 2.1347 4.96392 2.36651 4.83498 2.55944C4.70604 2.75238 4.51396 2.89441 4.2917 2.96115C4.06945 3.02789 3.8309 3.01518 3.617 2.92519ZM14.383 2.92519C14.2309 2.98875 14.0655 3.01362 13.9014 2.99756C13.7374 2.98151 13.5799 2.92503 13.443 2.83319C13.3199 2.75094 13.2166 2.64239 13.1406 2.51537C13.0646 2.38836 13.0177 2.24604 13.0033 2.09871C12.989 1.95137 13.0075 1.80269 13.0576 1.66339C13.1077 1.52409 13.1881 1.39765 13.293 1.29319L14.293 0.293191C14.3859 0.200346 14.4962 0.126711 14.6176 0.0764889C14.7389 0.0262669 14.869 0.000441914 15.0004 0.000488344C15.1317 0.000534773 15.2618 0.0264517 15.3831 0.0767595C15.5044 0.127067 15.6147 0.200781 15.7075 0.293691C15.8003 0.386601 15.874 0.496889 15.9242 0.618257C15.9744 0.739624 16.0002 0.869696 16.0002 1.00104C16.0002 1.13239 15.9742 1.26245 15.9239 1.38378C15.8736 1.50511 15.7999 1.61535 15.707 1.70819L14.707 2.70819C14.6144 2.80117 14.5042 2.87491 14.383 2.92519ZM14.293 6.70819C14.1532 6.56834 14.058 6.39017 14.0194 6.19622C13.9808 6.00227 14.0007 5.80124 14.0763 5.61854C14.152 5.43584 14.2801 5.27967 14.4445 5.16979C14.609 5.0599 14.8022 5.00123 15 5.00119H17C17.2652 5.00119 17.5196 5.10655 17.7071 5.29408C17.8946 5.48162 18 5.73597 18 6.00119C18 6.26641 17.8946 6.52076 17.7071 6.7083C17.5196 6.89583 17.2652 7.00119 17 7.00119H15C14.7348 7.00113 14.4805 6.89574 14.293 6.70819ZM3 7.00119H1C0.734784 7.00119 0.48043 6.89583 0.292893 6.7083C0.105357 6.52076 0 6.26641 0 6.00119C0 5.73597 0.105357 5.48162 0.292893 5.29408C0.48043 5.10655 0.734784 5.00119 1 5.00119H3C3.26522 5.00119 3.51957 5.10655 3.70711 5.29408C3.89464 5.48162 4 5.73597 4 6.00119C4 6.26641 3.89464 6.52076 3.70711 6.7083C3.51957 6.89583 3.26522 7.00119 3 7.00119ZM0 15.5012V10.0012H2V12.0012H5.5C6.275 12.0012 6.888 12.6632 7.426 13.2452L7.536 13.3652C7.902 13.7562 8.422 14.0012 9 14.0012C9.578 14.0012 10.098 13.7562 10.463 13.3642L10.573 13.2452H10.574C11.112 12.6632 11.725 12.0012 12.5 12.0012H16V10.0012H18V15.5012C18 15.899 17.842 16.2805 17.5607 16.5618C17.2794 16.8432 16.8978 17.0012 16.5 17.0012H1.5C1.10218 17.0012 0.720644 16.8432 0.43934 16.5618C0.158035 16.2805 0 15.899 0 15.5012Z" fill="white"/>
</svg>
